<svg width="53" height="53" viewBox="0 0 53 53" fill="none" xmlns="http://www.w3.org/2000/svg">
<circle cx="26.2857" cy="26.2857" r="26.2857" fill="url(#paint0_linear_514_2115)"/>
<path fill-rule="evenodd" clip-rule="evenodd" d="M23.8216 23.381H27.3809V25.1539C27.8936 24.1343 29.2084 23.2181 31.1835 23.2181C34.9699 23.2181 35.8688 25.2479 35.8688 28.9719V35.8691H32.0355V29.8201C32.0355 27.6993 31.5228 26.5033 30.2175 26.5033C28.4072 26.5033 27.6549 27.7922 27.6549 29.8191V35.8691H23.8216V23.381ZM17.2484 35.7061H21.0817V23.2181H17.2484V35.7061ZM21.6309 19.1461C21.631 19.4674 21.5673 19.7856 21.4434 20.082C21.3195 20.3785 21.1379 20.6474 20.9092 20.8731C20.4458 21.3337 19.8185 21.5915 19.1651 21.5899C18.5128 21.5895 17.8869 21.3323 17.4228 20.874C17.1949 20.6476 17.014 20.3784 16.8903 20.0819C16.7666 19.7854 16.7027 19.4674 16.7021 19.1461C16.7021 18.4974 16.9609 17.8764 17.4238 17.4183C17.8875 16.9594 18.5136 16.7021 19.166 16.7024C19.8196 16.7024 20.4464 16.9602 20.9092 17.4183C21.3711 17.8764 21.6309 18.4974 21.6309 19.1461Z" fill="#DDF4ED"/>
<defs>
<linearGradient id="paint0_linear_514_2115" x1="0" y1="52.5714" x2="52.5714" y2="0" gradientUnits="userSpaceOnUse">
<stop offset="0.151166" stop-color="#0CB578"/>
<stop offset="0.853147" stop-color="#0EE196"/>
</linearGradient>
</defs>
</svg>
